<svg width="95" height="113" viewBox="0 0 95 113" fill="none" xmlns="http://www.w3.org/2000/svg">
<path d="M41.4781 1.56098C40.0481 2.20698 44.9821 1.56103 44.9821 1.56103L41.4781 1.56098C36.5261 1.56098 35.1881 2.05203 33.9001 4.33903C33.1591 5.65503 33.1851 5.34503 33.1471 13.207L33.1121 20.312L32.0751 20.671C14.7021 26.693 2.52406 41.784 0.24806 60.111C0.00605997 62.058 -0.0299411 68.783 0.191059 70.582C1.93806 84.769 8.87706 96.485 20.3001 104.532C32.2001 112.915 48.2031 115.297 62.0761 110.75C89.5921 101.731 102.784 70.585 90.0631 44.672C84.5391 33.42 73.8111 24.062 62.3751 20.518L61.7661 20.329L61.7311 13.215C61.6931 5.34303 61.7191 5.65403 60.9781 4.33803C59.6901 2.05103 58.3521 1.56003 53.4031 1.56003H49.9021C49.3571 0.507028 42.5621 1.07098 41.4781 1.56098ZM56.5601 6.59003L56.8421 6.81103V18.121H38.0371V6.81103L38.3191 6.59003C38.7631 6.24103 56.1161 6.24103 56.5601 6.59003ZM49.3621 23.04C82.2511 24.634 101.067 61.229 83.1611 88.776C66.3831 114.588 28.5081 114.588 11.7161 88.776C-6.12394 61.353 12.6461 24.616 45.3021 23.042C46.2131 22.998 47.0061 22.956 47.0651 22.948C47.1241 22.94 48.1581 22.981 49.3621 23.04Z" fill="white"/>
</svg>
